<?xml version="1.0" encoding="UTF-8"?>
<svg width="64px" height="64px" viewBox="0 0 64 64" version="1.1" xmlns="http://www.w3.org/2000/svg" xmlns:xlink="http://www.w3.org/1999/xlink">
    <!-- Generator: Sketch 53.2 (72643) - https://sketchapp.com -->
    <title>MinimalTwitterIcon</title>
    <desc>Created with Sketch.</desc>
    <defs>
        <linearGradient x1="20.520038%" y1="12.4698602%" x2="96.7519282%" y2="117.085727%" id="linearGradient-1">
            <stop stop-color="#1DA1F2" offset="0%"></stop>
            <stop stop-color="#FFFFFF" offset="100%"></stop>
        </linearGradient>
    </defs>
    <g id="MinimalTwitterIcon" stroke="none" stroke-width="1" fill="none" fill-rule="evenodd">
        <path d="M52.4712683,28.5712235 C52.8176892,30.1605741 53,31.8094401 53,33.5 C53,46.4786916 42.254834,57 29,57 C15.745166,57 5,46.4786916 5,33.5 C5,20.5213084 15.745166,10 29,10 C32.8264124,10 36.4436781,10.8768084 39.6536705,12.4364266 C50.8773763,7.70079147 56.9470952,6.0590416 57.862827,7.51117694 C58.6414081,8.74582358 56.105624,13.0148077 50.2554747,20.3181293 C56.0405986,19.7377638 59.2493253,19.9514719 59.8816547,20.9592535 C60.5898333,22.0879205 58.1197045,24.6252438 52.4712683,28.5712235 Z" id="Combined-Shape" fill="url(#linearGradient-1)"></path>
    </g>
</svg>