<svg fill="none" height="200" viewBox="0 0 194 200" width="194" xmlns="http://www.w3.org/2000/svg" xmlns:xlink="http://www.w3.org/1999/xlink"><radialGradient id="a" cx="0" cy="0" gradientTransform="matrix(69.5441781 2.74927156 -4.0584231 102.65981104 190.21 61.8396)" gradientUnits="userSpaceOnUse" r="1"><stop offset=".1" stop-color="#ffea00"/><stop offset=".17" stop-color="#ffde00"/><stop offset=".28" stop-color="#ffbf00"/><stop offset=".43" stop-color="#ff8e00"/><stop offset=".77" stop-color="#ff272d"/><stop offset=".87" stop-color="#e0255a"/><stop offset=".95" stop-color="#cc2477"/><stop offset="1" stop-color="#c42482"/></radialGradient><radialGradient id="b" cx="0" cy="0" gradientTransform="matrix(197.512 0 0 197.807 126.906 31.1726)" gradientUnits="userSpaceOnUse" r="1"><stop offset="0" stop-color="#00ccda"/><stop offset=".22" stop-color="#0083ff"/><stop offset=".26" stop-color="#007af9"/><stop offset=".33" stop-color="#005fe7"/><stop offset=".44" stop-color="#2639ad"/><stop offset=".52" stop-color="#401e84"/><stop offset=".57" stop-color="#4a1475"/></radialGradient><linearGradient id="c" gradientUnits="userSpaceOnUse" x1="109.722" x2="70.7636" y1="148.211" y2="20.9614"><stop offset="0" stop-color="#000f43" stop-opacity=".4"/><stop offset=".48" stop-color="#001962" stop-opacity=".17"/><stop offset="1" stop-color="#002079" stop-opacity="0"/></linearGradient><radialGradient id="d" cx="0" cy="0" gradientTransform="matrix(66.08135556 6.50951681 -6.51905543 66.17818688 195.822 132.887)" gradientUnits="userSpaceOnUse" r="1"><stop offset="0" stop-color="#ffea00"/><stop offset=".5" stop-color="#ff272d"/><stop offset="1" stop-color="#c42482"/></radialGradient><radialGradient id="e" cx="0" cy="0" gradientTransform="matrix(110.34889162 10.87022571 -10.88620513 110.51110647 196.075 68.8409)" gradientUnits="userSpaceOnUse" r="1"><stop offset="0" stop-color="#ffe900"/><stop offset=".16" stop-color="#ffaf0e"/><stop offset=".32" stop-color="#ff7a1b"/><stop offset=".47" stop-color="#ff4e26"/><stop offset=".62" stop-color="#ff2c2e"/><stop offset=".76" stop-color="#ff1434"/><stop offset=".89" stop-color="#ff0538"/><stop offset="1" stop-color="#ff0039"/></radialGradient><radialGradient id="f" cx="0" cy="0" gradientTransform="matrix(101.25789542 9.9746739 -9.98928083 101.40617771 201.622 172.824)" gradientUnits="userSpaceOnUse" r="1"><stop offset="0" stop-color="#ff272d"/><stop offset=".5" stop-color="#c42482"/><stop offset=".99" stop-color="#620700"/></radialGradient><radialGradient id="g" cx="0" cy="0" gradientTransform="matrix(158.743 0 0 158.98 145.147 80.0894)" gradientUnits="userSpaceOnUse" r="1"><stop offset=".16" stop-color="#ffea00"/><stop offset=".23" stop-color="#ffde00"/><stop offset=".37" stop-color="#ffbf00"/><stop offset=".54" stop-color="#ff8e00"/><stop offset=".76" stop-color="#ff272d"/><stop offset=".8" stop-color="#f92433"/><stop offset=".84" stop-color="#e91c45"/><stop offset=".89" stop-color="#cf0e62"/><stop offset=".94" stop-color="#b5007f"/></radialGradient><radialGradient id="h" cx="0" cy="0" gradientTransform="matrix(180.919 0 0 181.189 136.045 6.35975)" gradientUnits="userSpaceOnUse" r="1"><stop offset=".28" stop-color="#ffea00"/><stop offset=".4" stop-color="#fd0"/><stop offset=".63" stop-color="#ffba00"/><stop offset=".86" stop-color="#ff9100"/><stop offset=".93" stop-color="#ff6711"/><stop offset=".99" stop-color="#ff4a1d"/></radialGradient><linearGradient id="i" gradientUnits="userSpaceOnUse" x1="30.1585" x2="108.09" y1="74.2486" y2="62.366"><stop offset="0" stop-color="#c42482" stop-opacity=".5"/><stop offset=".47" stop-color="#ff272d" stop-opacity=".5"/><stop offset=".49" stop-color="#ff2c2c" stop-opacity=".51"/><stop offset=".68" stop-color="#ff7a1a" stop-opacity=".72"/><stop offset=".83" stop-color="#ffb20d" stop-opacity=".87"/><stop offset=".94" stop-color="#ffd605" stop-opacity=".96"/><stop offset="1" stop-color="#ffe302"/></linearGradient><linearGradient id="j" gradientUnits="userSpaceOnUse" x1="29.4306" x2="21.2821" y1="53.7843" y2="24.5409"><stop offset="0" stop-color="#891551" stop-opacity=".6"/><stop offset="1" stop-color="#c42482" stop-opacity="0"/></linearGradient><linearGradient id="k" gradientUnits="userSpaceOnUse" x1="44.4048" x2="61.1773" y1="94.8449" y2="118.24"><stop offset=".01" stop-color="#891551" stop-opacity=".5"/><stop offset=".48" stop-color="#ff272d" stop-opacity=".5"/><stop offset="1" stop-color="#ff272d" stop-opacity="0"/></linearGradient><linearGradient id="l" gradientUnits="userSpaceOnUse" x1="77.0075" x2="78.5437" y1="135.618" y2="120.573"><stop offset="0" stop-color="#c42482"/><stop offset=".08" stop-color="#c42482" stop-opacity=".81"/><stop offset=".21" stop-color="#c42482" stop-opacity=".57"/><stop offset=".33" stop-color="#c42482" stop-opacity=".36"/><stop offset=".45" stop-color="#c42482" stop-opacity=".2"/><stop offset=".56" stop-color="#c42482" stop-opacity=".09"/><stop offset=".67" stop-color="#c42482" stop-opacity=".02"/><stop offset=".77" stop-color="#c42482" stop-opacity="0"/></linearGradient><linearGradient id="m" gradientUnits="userSpaceOnUse" x1="125.934" x2="188.122" y1="7.34153" y2="146.193"><stop offset="0" stop-color="#fff14f"/><stop offset=".27" stop-color="#ffee4c"/><stop offset=".45" stop-color="#ffe643"/><stop offset=".61" stop-color="#ffd834"/><stop offset=".76" stop-color="#ffc41e"/><stop offset=".89" stop-color="#ffab02"/><stop offset=".9" stop-color="#ffa900"/><stop offset=".95" stop-color="#ffa000"/><stop offset="1" stop-color="#ff9100"/></linearGradient><linearGradient id="n" gradientUnits="userSpaceOnUse" x1="138.184" x2="108.724" y1="87.2378" y2="166.223"><stop offset="0" stop-color="#ff8e00"/><stop offset=".04" stop-color="#ff8e00" stop-opacity=".86"/><stop offset=".08" stop-color="#ff8e00" stop-opacity=".73"/><stop offset=".13" stop-color="#ff8e00" stop-opacity=".63"/><stop offset=".18" stop-color="#ff8e00" stop-opacity=".56"/><stop offset=".23" stop-color="#ff8e00" stop-opacity=".51"/><stop offset=".28" stop-color="#ff8e00" stop-opacity=".5"/><stop offset=".39" stop-color="#ff8e00" stop-opacity=".48"/><stop offset=".52" stop-color="#ff8e00" stop-opacity=".42"/><stop offset=".68" stop-color="#ff8e00" stop-opacity=".31"/><stop offset=".84" stop-color="#ff8e00" stop-opacity=".17"/><stop offset="1" stop-color="#ff8e00" stop-opacity="0"/></linearGradient><clipPath id="o"><path d="m0 0h193.485v200h-193.485z"/></clipPath><g clip-path="url(#o)"><path d="m156.327 18.6099c-4.86 5.6666-7.123 18.4227-2.195 31.3536 4.927 12.9309 12.481 10.122 17.189 23.3069 6.215 17.3984 3.323 40.7706 3.323 40.7706s7.47 21.668 12.678-1.348c11.525-43.2335-30.995-83.4368-30.995-94.0831z" fill="url(#a)"/><path d="m97.0238 198.097c49.7712 0 90.0892-40.597 90.0892-90.65 0-50.0528-40.318-90.6504-90.0405-90.6504s-90.04035 40.5854-90.04035 90.6444c-.09538 50.108 40.26915 90.656 89.99165 90.656z" fill="url(#b)"/><path d="m164.525 163.341c-1.948 1.376-3.99 2.611-6.113 3.696 2.812-4.13 5.406-8.404 7.773-12.805 1.92-2.128 3.679-4.197 5.112-6.433.698-1.1 1.484-2.455 2.318-4.029 5.057-9.126 10.634-23.894 10.792-39.065v-1.15c.027-3.8082-.361-7.6078-1.158-11.3314.04.2906.077.5813.113.8719-.044-.2235-.083-.4491-.13-.6727.075.4065.134.813.203 1.2195 1.033 8.7847.299 17.3517-3.385 23.6687-.059.091-.118.179-.176.268 1.909-9.599 2.549-20.2009.424-30.8127 0 0-.851-5.1586-7.181-20.8212-3.653-9.0142-10.113-16.4065-15.83-21.7906-5.01-6.2094-9.561-10.3659-12.069-13.0203-5.24-5.5244-7.436-9.6687-8.339-12.372-.781-.3923-10.785-10.12397-11.578-10.49389-4.366 6.77849-18.095 27.98169-11.568 47.79469 2.959 8.9777 10.445 18.2927 18.279 23.5244.343.3943 4.668 5.0813 6.716 15.6829 2.121 10.9447 1.014 19.4837-3.357 32.1137-5.133 11.079-18.269 22.031-30.588 23.151-26.3169 2.394-35.9529-13.234-35.9529-13.234 9.4047 3.756 19.8017 2.977 26.1236-.919 6.3723-3.949 10.2263-6.876 13.3563-5.721 3.081 1.134 5.544-2.206 3.332-5.661-1.702-2.625-4.137-4.691-7.002-5.94s-6.0339-1.627-9.112-1.086c-6.3786 1.038-12.2236 6.097-20.581 1.197-.5409-.315-1.0646-.658-1.5688-1.029-.55-.364 1.792.553 1.2441.141-1.6236-.885-4.5055-2.813-5.2523-3.5-.1238-.114 1.2623.443 1.1385.329-7.8156-6.445-6.8394-10.799-6.5938-13.531.2029-2.1846 1.6236-4.9834 4.0082-6.1196 1.1548.6321 1.8753 1.1138 1.8753 1.1138s-.4932-1.0162-.759-1.5406c.0933-.0407.1826-.0305.276-.0691.9457.4573 3.0442 1.6463 4.1422 2.3719 1.4348 1.0163 1.8935 1.9187 1.8935 1.9187s.3775-.2032.0974-1.0915c-.1015-.3617-.5378-1.5142-1.9585-2.6768h.0893c.8506.4833 1.6567 1.041 2.409 1.6667.4059-1.4594 1.1223-2.9838.964-5.7094-.0974-1.9166-.0527-2.4126-.3896-3.1524-.3024-.6362.1684-.8842.6941-.2236-.0893-.5174-.2399-1.0223-.4486-1.504v-.0488c.6556-2.2846 13.8513-8.2236 14.8153-8.9187 1.5783-1.1165 2.9017-2.5562 3.8824-4.2236.7347-1.1707 1.2867-2.815 1.4207-5.3069.073-1.7968-.7631-2.9939-14.107-4.3943-3.6531-.3598-5.7902-3.0081-7.0078-5.4512-.2213-.5265-.4486-1.0041-.6759-1.4797-.2165-.557-.3902-1.1299-.5195-1.7134 2.1817-6.2744 5.8469-11.5854 11.2373-15.5895.2942-.2683-1.1731.0691-.8808-.2032.343-.313 2.5795-1.2195 3.0016-1.4228.5155-.2439-2.2081-1.4024-4.613-1.1199-2.4496.2764-2.9692.5691-4.2762 1.124.5419-.5407 2.267-1.25 1.8631-1.2459-2.6383.4065-5.9221 1.943-8.7268 3.6829-.0063-.3033.0511-.6045.1684-.8842-1.307.5549-4.5176 2.8029-5.4532 4.7033.0406-.3644.0589-.7309.0548-1.0976-.9959.8316-1.8939 1.7739-2.6769 2.809l-.0487.0447c-7.5822-3.0488-14.2531-3.2521-19.8991-1.8862-1.236-1.2419-1.8388-.3333-4.6496-6.5183-.1908-.3719.1461.3679 0 0-.4627-1.1992.2821 1.5996 0 0-4.7247 3.7338-10.943 7.9655-13.9284 10.9533-.0365.1199 3.4826-.996 0 0-1.2177.3496-1.1365 1.0731-1.3212 7.6219-.0446.4959 0 1.0529-.0446 1.5-2.3847 3.0488-4.0083 5.6179-4.6232 6.9533-3.0828 5.3211-6.4802 13.6179-9.772 26.7378 1.4538-3.5496 3.2047-6.9696 5.2341-10.2236-2.7378 6.9654-5.38428 17.9024-5.91195 34.7435.66135-3.475 1.51025-6.913 2.54295-10.296-.6474 13.974 1.758 27.921 7.0484 40.868 1.8935 4.638 5.025 11.678 10.3504 19.39 16.7575 17.66 40.3828 28.636 66.5429 28.636 27.3125 0 51.8395-11.965 68.6905-30.968z" fill="url(#c)"/><path d="m144.317 176.161c33.054-3.834 47.693-37.948 28.896-38.618-16.973-.551-44.543 40.426-28.896 38.618z" fill="url(#d)"/><path d="m175.593 130.573c22.741-13.254 16.802-41.886 16.802-41.886s-8.777 10.2114-14.738 26.488c-5.881 16.126-15.736 23.404-2.064 15.398z" fill="url(#e)"/><path d="m103.396 193.102c31.707 10.132 58.963-14.882 42.161-23.236-15.264-7.533-57.2093 18.445-42.161 23.236z" fill="url(#f)"/><path d="m177.956 142.73c.771-1.09 1.814-4.58 2.735-6.141 5.598-9.048 5.638-16.26 5.638-16.431 3.382-16.914 3.075-23.8207.995-36.5849-1.674-10.2846-8.995-25.0183-15.337-32.1138-6.535-7.3171-1.93-4.9289-8.258-10.2683-5.547-6.1565-10.923-12.2541-13.851-14.7073-21.164-17.72564-20.687-21.48783-20.279-22.13011-.069.0752-.17.18699-.298.33333-.252-1-.428-1.84146-.428-1.84146s-11.569 11.58534-14.004 30.89434c-1.589 12.6016 3.121 25.7479 9.945 34.1463 3.553 4.3525 7.567 8.3053 11.974 11.7886 5.154 7.4147 7.992 16.563 7.992 26.4043 0 24.642-19.958 44.62-44.578 44.62-3.3552.002-6.6999-.374-9.9709-1.122-11.6168-2.219-18.3263-8.089-21.6709-12.075-1.9179-2.283-2.7317-3.947-2.7317-3.947 10.4072 3.734 21.9185 2.953 28.9141-.919 7.0524-3.915 11.3184-6.819 14.7824-5.675 3.414 1.141 6.132-2.168 3.694-5.597-2.389-3.425-8.605-8.334-17.835-6.97-7.0606 1.031-13.5286 6.049-22.779 1.187-.5953-.309-1.1744-.648-1.7352-1.016-.6089-.36 1.9828.547 1.378.138-1.8002-.878-4.9865-2.79-5.8125-3.469-.138-.114 1.3963.439 1.2583.325-8.6497-6.392-7.57-10.709-7.3062-13.4148.2172-2.1666 1.788-4.9431 4.4365-6.0691 1.2786.626 2.0762 1.1037 2.0762 1.1037s-.546-1-.8402-1.5264c.1035-.0387.2029-.0305.3044-.0691 1.0472.4532 3.3649 1.626 4.5846 2.3516 1.5891 1.0061 2.0944 1.9024 2.0944 1.9024s.4181-.2032.1096-1.0833c-.1136-.3598-.5946-1.502-2.1675-2.6565h.0975c.9333.4773 1.8247 1.0328 2.6647 1.6606.4444-1.4472 1.242-2.9594 1.0655-5.6626-.1076-1.9005-.0569-2.3944-.4303-3.1281-.3349-.6301.1867-.876.7671-.2215-.0994-.5168-.2659-1.0183-.4951-1.4919v-.0488c.7245-2.2642 15.3287-8.1545 16.3921-8.8435 1.7129-1.0766 3.1775-2.506 4.2965-4.1931.8118-1.1626 1.4206-2.7906 1.5728-5.2622.0508-1.1138-.2922-1.9959-4.1604-2.8455-2.3218-.5061-5.914-.998-11.4524-1.5183-4.0387-.3577-6.4092-2.9837-7.7547-5.4065-.2456-.5224-.4972-.9959-.7469-1.4675-.2379-.5495-.43-1.1179-.5743-1.6992 2.4169-6.3359 6.7693-11.7461 12.4367-15.4593.3247-.2663-1.2989.0671-.9742-.2033.3796-.3089 2.8535-1.2052 3.3223-1.4065.5703-.2418-2.4354-1.3902-5.1062-1.1118-2.7114.2744-3.2857.5651-4.7328 1.1159.6089-.5366 2.5105-1.2398 2.062-1.2358-2.9225.4065-6.5552 1.9269-9.6604 3.6586-.0055-.3025.0584-.6022.1868-.8761-1.4471.5509-5.0007 2.7785-6.0337 4.6748.044-.3607.0636-.724.0588-1.0874-1.0896.8131-2.0836 1.7472-2.963 2.7846l-.0548.0447c-8.3798-3.0305-15.7651-3.2337-22.0058-1.8679-1.3678-1.2317-3.5658-3.0955-6.6749-9.2276-.203-.3699-.3248.7622-.4871.4065-1.2177-2.8069-1.9382-7.4065-1.8266-10.5691 0 0-2.5003 1.1402-4.5683 5.9065-.3836.8557-.6312 1.3293-.8768 1.8028-.1136.1382.2578-1.565.203-1.4715-.3593.6097-1.2908 1.4614-1.6987 2.565-.2801.813-.6738 1.2744-.9255 2.2947l-.0588.0935c-.0203-.3008.0751-1.2357 0-1.0447-.9704 1.9568-1.8058 3.9777-2.5004 6.0488-1.1141 3.6585-2.411 8.6606-2.616 15.1565-.0487.4919 0 1.0447-.0507 1.4878-2.6383 3.0142-4.4365 5.5671-5.1143 6.8923-3.41158 5.2845-7.1702 13.5041-10.81516 26.5162 1.62127-3.5552 3.55986-6.9566 5.79216-10.1626-3.03003 6.9086-5.958578 17.7561-6.5451 34.459.73457-3.456 1.67454-6.866 2.8149-10.211-.52361 11.138.77324 24.947 7.8034 40.537 4.1746 9.146 13.7843 27.764 37.2655 42.276 0 0 7.988 5.955 21.7155 10.419 1.0147.368 2.0417.731 3.0909 1.083-.3288-.135-.6474-.271-.9559-.406 9.14 2.743 18.6298 4.14 28.1714 4.148 35.5523.03 46.0393-14.268 46.0393-14.268l-.104.077c.502-.473.985-.965 1.449-1.476-5.609 5.301-18.417 5.659-23.197 5.285 8.163-2.401 13.535-4.433 23.983-8.439 1.217-.456 2.467-.973 3.75-1.553l.406-.191c.254-.118.505-.23.761-.354 5.091-2.403 9.877-5.406 14.259-8.943 10.493-8.394 12.786-16.577 13.969-21.971-.166.516-.684 1.721-1.049 2.504-2.701 5.788-8.694 9.349-15.203 12.398 3.096-4.07 5.968-8.307 8.601-12.691 2.137-2.128 2.793-5.429 4.386-7.648z" fill="url(#g)"/><path d="m165.184 162.805c4.278-4.724 8.118-10.126 11.03-16.26 7.489-15.769 19.078-41.988 9.945-69.3722-7.205-21.6403-17.103-33.4736-29.663-45.0346-20.407-18.7723-26.105-27.15446-26.105-32.1382 0 0-23.561 26.3028-13.342 53.7358 10.218 27.4329 31.144 26.4227 44.989 55.0552 16.291 33.687-13.181 70.449-37.545 80.739 1.492-.331 54.187-12.272 56.949-42.455-.071.555-1.258 8.903-16.258 15.73z" fill="url(#h)"/><path d="m96.9263 64.9125c.0792-1.7825-.8442-2.9796-15.5621-4.3617-6.056-.561-8.3736-6.1647-9.0819-8.5244-2.1533 5.6016-3.0443 11.4817-2.5653 18.5935.3267 4.6585 3.4501 9.6585 4.9459 12.6016 0 0 .3328-.4329.485-.5915 2.8129-2.9329 14.6001-7.4024 15.7062-8.0366 1.2218-.7805 5.8673-4.1788 6.0722-9.6809z" fill="url(#i)"/><path d="m32.1289 31.8027c-.2029-.3699-.3247.7622-.4871.4065-1.2177-2.8069-1.9442-7.3577-1.7697-10.5691 0 0-2.5003 1.1403-4.5684 5.9065-.3835.8557-.6311 1.3293-.8767 1.8009-.1137.1382.2577-1.5651.2029-1.4716-.3592.6098-1.2907 1.4614-1.6946 2.5163-.3348.8618-.6799 1.3252-.9356 2.3922-.0791.2907.0792-1.2845 0-1.0935-4.8058 9.3009-5.7252 23.3903-5.2178 22.7805 10.2449-10.9471 21.9814-13.5447 21.9814-13.5447-1.2481-.9207-3.9636-3.5833-6.6364-9.124z" fill="url(#j)"/><path d="m70.9996 146.362c-14.1496-6.051-30.2394-14.584-29.6305-33.972.828-25.5304 23.7775-20.4836 23.7775-20.4836-.8666.2032-3.1823 1.8618-4.0022 3.6219-.8666 2.2012-2.4496 7.1707 2.3441 12.3777 7.5273 8.169-15.4647 19.382 20.0229 40.563.895.488-8.3209-.29-12.5098-2.105z" fill="url(#k)"/><path d="m65.9725 133.638c10.0338 3.498 21.7155 2.884 28.7213-.988 4.6861-2.611 10.6952-6.794 14.3932-5.762-3.203-1.268-5.628-1.86-8.544-2.004-.497 0-1.0921 0-1.6238-.065-1.0686-.004-2.1366.055-3.1985.175-1.8062.167-3.8093 1.307-5.6298 1.124-.0974 0 1.7657-.766 1.6236-.734-.964.203-2.0132.246-3.1193.382-.7043.079-1.309.167-2.0072.203-20.9037 1.775-38.5603-11.343-38.5603-11.343-1.5038 5.081 6.7318 15.102 17.9651 19.018z" fill="url(#l)"/><path d="m165.148 162.937c21.139-20.787 31.834-46.053 27.312-74.3902 0 0 1.807 14.5322-5.043 29.3962 3.29-14.51 3.674-32.5425-5.074-51.2193-11.663-24.9269-30.852-38.0427-38.178-43.5143-11.1-8.2906-15.698-16.73169-15.786-18.47356-3.316 6.80486-13.348 30.12196-1.077 50.20326 11.495 18.813 29.602 24.3902 42.28 41.6667 23.355 31.7822-4.434 66.3312-4.434 66.3312z" fill="url(#m)"/><path d="m162.118 108.852c-7.388-15.2849-16.604-21.9516-25.33-29.1772 1.014 1.4228 1.264 1.9248 1.826 2.8455 7.678 8.1952 18.998 28.1827 10.779 53.2747-15.471 47.229-77.3461 24.99-83.8405 18.742 2.6241 27.335 48.3015 40.414 78.0545 22.699 16.926-16.057 30.619-43.336 18.511-68.384z" fill="url(#n)"/></g></svg>