<svg fill="none" height="200" viewBox="0 0 200 200" width="200" xmlns="http://www.w3.org/2000/svg"><path d="m200 100c0 55.22-44.78 100-100 100s-100-44.78-100-100 44.78-100 100-100 100 44.78 100 100z" fill="#4caf50"/><path d="m100 0v100l40 20-44.215 80h4.215c55.265 0 100-44.735 100-100s-44.735-100-100-100z" fill="#ffc107"/><path d="m200 100c0 55.22-44.78 100-100 100s-100-44.78-100-100 44.78-100 100-100 100 44.78 100 100z" fill="#4caf50"/><path d="m100 0v100l40 20-44.215 80h4.215c55.265 0 100-44.735 100-100s-44.735-100-100-100z" fill="#ffc107"/><path d="m189.2 55h-89.2v65l-14.9999-5-69.2-68.7h-.1c17.7-27.85 48.85-46.3 84.2999-46.3 39 0 72.75 22.4 89.2 55z" fill="#f44336"/><path d="m15.79 46.3201 44.215 74.3099 24.995-5.63z" fill="#dd2c00"/><path d="m95.785 200 44.67-80.295-20.455-14.705z" fill="#558b2f"/><path d="m189.325 55h-89.325l-7.8949 22.9z" fill="#f9a825"/><path d="m145 100c0 24.845-20.155 45-45 45s-45-20.155-45-45 20.155-45 45-45 45 20.155 45 45z" fill="#fff"/><path d="m135 100c0 19.335-15.665 35-35 35s-35-15.665-35-35 15.665-35 35-35 35 15.665 35 35z" fill="#2196f3"/></svg>