<svg fill="none" height="200" viewBox="0 0 200 200" width="200" xmlns="http://www.w3.org/2000/svg" xmlns:xlink="http://www.w3.org/1999/xlink"><linearGradient id="a" gradientUnits="userSpaceOnUse" x1="45.8594" x2="185.234" y1="138.281" y2="138.281"><stop offset="0" stop-color="#0c59a4"/><stop offset="1" stop-color="#114a8b"/></linearGradient><radialGradient id="b" cx="0" cy="0" gradientTransform="matrix(74.5313 0 0 70.8047 122.813 139.332)" gradientUnits="userSpaceOnUse" r="1"><stop offset=".7" stop-opacity="0"/><stop offset=".9" stop-opacity=".5"/><stop offset="1"/></radialGradient><linearGradient id="c" gradientUnits="userSpaceOnUse" x1="119.297" x2="32.3438" y1="77.8125" y2="172.578"><stop offset="0" stop-color="#1b9de2"/><stop offset=".2" stop-color="#1595df"/><stop offset=".7" stop-color="#0680d7"/><stop offset="1" stop-color="#0078d4"/></linearGradient><radialGradient id="d" cx="0" cy="0" gradientTransform="matrix(16.78110546 -110.7559249 89.47995099 13.55749135 55.1211 155.42)" gradientUnits="userSpaceOnUse" r="1"><stop offset=".8" stop-opacity="0"/><stop offset=".9" stop-opacity=".5"/><stop offset="1"/></radialGradient><radialGradient id="e" cx="0" cy="0" gradientTransform="matrix(-6.32495432 158.12455203 -336.77369109 -13.47088852 20.2266 36.9656)" gradientUnits="userSpaceOnUse" r="1"><stop offset="0" stop-color="#35c1f1"/><stop offset=".1" stop-color="#34c1ed"/><stop offset=".2" stop-color="#2fc2df"/><stop offset=".3" stop-color="#2bc3d2"/><stop offset=".7" stop-color="#36c752"/></radialGradient><radialGradient id="f" cx="0" cy="0" gradientTransform="matrix(21.284362 72.97497775 -59.34326542 17.30844712 187.547 60.3906)" gradientUnits="userSpaceOnUse" r="1"><stop offset="0" stop-color="#66eb6e"/><stop offset="1" stop-color="#66eb6e" stop-opacity="0"/></radialGradient><clipPath id="g"><path d="m0 0h200v200h-200z"/></clipPath><g clip-path="url(#g)"><path d="m180.547 148.828c-2.682 1.394-5.448 2.62-8.281 3.672-8.973 3.34-18.474 5.033-28.047 5-36.953 0-69.1409-25.391-69.1409-58.0469.048-4.3728 1.2604-8.6538 3.5124-12.4025 2.2519-3.7487 5.4621-6.8296 9.3001-8.9256-33.4375 1.4063-42.0312 36.25-42.0312 56.641 0 57.812 53.2031 63.593 64.6876 63.593 6.172 0 15.469-1.796 21.094-3.593l1.015-.313c21.527-7.439 39.878-21.988 52.031-41.25.354-.585.505-1.27.432-1.95-.073-.679-.367-1.316-.837-1.813-.47-.496-1.09-.825-1.765-.935-.674-.111-1.366.003-1.97.323z" fill="url(#a)"/><path d="m180.547 148.828c-2.682 1.394-5.448 2.62-8.281 3.672-8.973 3.34-18.474 5.033-28.047 5-36.953 0-69.1409-25.391-69.1409-58.0469.048-4.3728 1.2604-8.6538 3.5124-12.4025 2.2519-3.7487 5.4621-6.8296 9.3001-8.9256-33.4375 1.4063-42.0312 36.25-42.0312 56.641 0 57.812 53.2031 63.593 64.6876 63.593 6.172 0 15.469-1.796 21.094-3.593l1.015-.313c21.527-7.439 39.878-21.988 52.031-41.25.354-.585.505-1.27.432-1.95-.073-.679-.367-1.316-.837-1.813-.47-.496-1.09-.825-1.765-.935-.674-.111-1.366.003-1.97.323z" fill="url(#b)" opacity=".35"/><path d="m82.5781 188.516c-6.954-4.319-12.9819-9.976-17.7344-16.641-5.427-7.428-9.1627-15.954-10.9448-24.979-1.7822-9.026-1.5677-18.331.6285-27.265 2.1961-8.933 6.3207-17.278 12.0843-24.4484 5.7635-7.1702 13.0264-12.9923 21.2789-17.0576 2.5-1.1719 6.6406-3.2031 12.1874-3.125 3.903.0302 7.747.9627 11.23 2.7245 3.483 1.7619 6.511 4.3054 8.848 7.4317 3.144 4.2273 4.867 9.3418 4.922 14.6094 0-.1562 19.141-62.1875-62.4999-62.1875-34.2969 0-62.4999764 32.5-62.4999764 61.0938-.1364177 15.1041 3.0927964 30.0491 9.4531264 43.7501 10.41615 22.18 28.61355 39.763 51.13775 49.412s47.807 10.693 71.05 2.932c-8.143 2.571-16.747 3.344-25.218 2.265-8.4711-1.079-16.6067-3.984-23.8447-8.515z" fill="url(#c)"/><path d="m82.5781 188.516c-6.954-4.319-12.9819-9.976-17.7344-16.641-5.427-7.428-9.1627-15.954-10.9448-24.979-1.7822-9.026-1.5677-18.331.6285-27.265 2.1961-8.933 6.3207-17.278 12.0843-24.4484 5.7635-7.1702 13.0264-12.9923 21.2789-17.0576 2.5-1.1719 6.6406-3.2031 12.1874-3.125 3.903.0302 7.747.9627 11.23 2.7245 3.483 1.7619 6.511 4.3054 8.848 7.4317 3.144 4.2273 4.867 9.3418 4.922 14.6094 0-.1562 19.141-62.1875-62.4999-62.1875-34.2969 0-62.4999764 32.5-62.4999764 61.0938-.1364177 15.1041 3.0927964 30.0491 9.4531264 43.7501 10.41615 22.18 28.61355 39.763 51.13775 49.412s47.807 10.693 71.05 2.932c-8.143 2.571-16.747 3.344-25.218 2.265-8.4711-1.079-16.6067-3.984-23.8447-8.515z" fill="url(#d)" opacity=".41"/><path d="m119.062 116.25c-.703.781-2.656 1.953-2.656 4.375 0 2.031 1.328 4.062 3.75 5.703 11.172 7.813 32.344 6.719 32.422 6.719 8.329-.006 16.503-2.245 23.672-6.485 7.217-4.221 13.206-10.255 17.372-17.505 4.166-7.249 6.364-15.4615 6.378-23.8226.234-17.5-6.25-29.1407-8.828-34.2969-16.641-32.3438-52.344-50.93749951-91.172-50.93749951-26.2798-.00259859-51.5044 10.33979951-70.2181 28.79039951s-29.412341 43.5262-29.7819 69.8033c.390625-28.5156 28.75-51.5625 62.5-51.5625 2.7344 0 18.3594.2344 32.8125 7.8125 10.1545 5.0458 18.5625 13.019 24.1405 22.8907 4.766 8.2812 5.625 18.8281 5.625 23.0466 0 4.219-2.109 10.391-6.094 15.547z" fill="url(#e)"/><path d="m119.062 116.25c-.703.781-2.656 1.953-2.656 4.375 0 2.031 1.328 4.062 3.75 5.703 11.172 7.813 32.344 6.719 32.422 6.719 8.329-.006 16.503-2.245 23.672-6.485 7.217-4.221 13.206-10.255 17.372-17.505 4.166-7.249 6.364-15.4615 6.378-23.8226.234-17.5-6.25-29.1407-8.828-34.2969-16.641-32.3438-52.344-50.93749951-91.172-50.93749951-26.2798-.00259859-51.5044 10.33979951-70.2181 28.79039951s-29.412341 43.5262-29.7819 69.8033c.390625-28.5156 28.75-51.5625 62.5-51.5625 2.7344 0 18.3594.2344 32.8125 7.8125 10.1545 5.0458 18.5625 13.019 24.1405 22.8907 4.766 8.2812 5.625 18.8281 5.625 23.0466 0 4.219-2.109 10.391-6.094 15.547z" fill="url(#f)"/></g></svg>