<svg width="202" height="205" viewBox="0 0 202 205" fill="none" xmlns="http://www.w3.org/2000/svg">
<g opacity="0.53" filter="url(#filter0_f_562_239)">
<path d="M197.331 109.189C197.331 121.37 194.84 133.433 189.999 144.687C185.158 155.941 178.062 166.167 169.117 174.781C160.171 183.394 149.552 190.227 137.864 194.889C126.177 199.55 113.65 201.95 101 201.95C88.3495 201.95 75.823 199.55 64.1355 194.889C52.448 190.227 41.8285 183.394 32.8833 174.781C23.9381 166.167 16.8424 155.941 12.0013 144.687C7.16015 133.433 4.66846 121.37 4.66846 109.189C4.66846 84.587 14.8176 60.9929 32.8833 43.5968C50.949 26.2007 75.4513 16.4277 101 16.4277C113.65 16.4277 126.177 18.8271 137.864 23.4887C149.552 28.1504 160.171 34.9832 169.117 43.5968C178.062 52.2105 185.158 62.4364 189.999 73.6907C194.84 84.9449 197.331 97.0072 197.331 109.189V109.189Z" fill="black"/>
</g>
<path d="M201 101C201 114.132 198.413 127.136 193.388 139.268C188.362 151.401 180.997 162.425 171.711 171.711C162.425 180.997 151.401 188.363 139.268 193.388C127.136 198.414 114.132 201 101 201C74.4783 201 49.0429 190.464 30.2893 171.711C11.5357 152.957 0.999998 127.522 1 101C0.999998 74.4784 11.5357 49.043 30.2893 30.2894C49.0429 11.5357 74.4783 1.00001 101 1C114.132 0.999999 127.136 3.58659 139.268 8.61206C151.401 13.6375 162.425 21.0035 171.711 30.2894C180.997 39.5752 188.362 50.5991 193.388 62.7317C198.413 74.8642 201 87.8679 201 101V101Z" fill="url(#paint0_linear_562_239)" stroke="#CDCDCD" stroke-width="0.0930123" stroke-linecap="round" stroke-linejoin="round"/>
<path d="M193.164 101C193.164 125.443 183.454 148.886 166.17 166.17C148.886 183.454 125.443 193.164 101 193.164C76.5566 193.164 53.1143 183.454 35.8302 166.17C18.5461 148.886 8.83594 125.443 8.83594 101C8.83594 76.5566 18.5461 53.1143 35.8302 35.8302C53.1143 18.5461 76.5566 8.83594 101 8.83594C125.443 8.83594 148.886 18.5461 166.17 35.8302C183.454 53.1143 193.164 76.5566 193.164 101Z" fill="url(#paint1_radial_562_239)"/>
<path d="M101 13.6423C100.255 13.6423 99.6559 14.2416 99.6559 14.986V30.4853C99.6559 31.2298 100.255 31.829 101 31.829C101.744 31.829 102.343 31.2298 102.343 30.4853V14.986C102.343 14.2416 101.744 13.6423 101 13.6423ZM92.2091 14.1979C92.12 14.1884 92.0284 14.1884 91.9358 14.1991C91.1954 14.2763 90.6616 14.9345 90.7389 15.6749L91.4162 22.1591C91.4934 22.8996 92.1518 23.4335 92.8921 23.3562C93.6326 23.2789 94.1665 22.6207 94.0891 21.8802L93.4123 15.3961C93.3447 14.7482 92.8321 14.2584 92.209 14.1979H92.2091ZM109.852 14.2043C109.229 14.2643 108.716 14.754 108.648 15.4018L107.966 21.8855C107.888 22.6259 108.422 23.2847 109.162 23.3626C109.903 23.4405 110.561 22.9071 110.639 22.1667L111.321 15.6825C111.399 14.9422 110.865 14.2838 110.124 14.206C110.032 14.1964 109.941 14.1964 109.852 14.2044V14.2043ZM83.179 15.5074C83.0896 15.5081 82.9986 15.517 82.9076 15.5361C82.1793 15.6903 81.7171 16.4009 81.8713 17.1292L85.0812 32.2921C85.2354 33.0204 85.946 33.4826 86.6743 33.3285C87.4026 33.1743 87.8648 32.4643 87.7106 31.736L84.5007 16.5725C84.3656 15.9352 83.805 15.5017 83.1791 15.5066L83.179 15.5074ZM118.881 15.5202C118.255 15.5138 117.694 15.9478 117.559 16.5849L114.338 31.746C114.183 32.4742 114.645 33.185 115.373 33.3397C116.101 33.4946 116.812 33.0326 116.967 32.3045L120.188 17.1433C120.343 16.4152 119.881 15.7044 119.153 15.5497C119.062 15.5306 118.971 15.521 118.881 15.521L118.881 15.5202ZM74.5611 17.9373C74.3871 17.9213 74.2075 17.9405 74.0305 17.9992C73.3225 18.2294 72.9375 18.984 73.1676 19.692L75.1823 25.8927C75.4124 26.6007 76.1677 26.9856 76.8757 26.7556C77.5837 26.5254 77.9681 25.7702 77.738 25.0622L75.7234 18.8616C75.551 18.3306 75.083 17.9816 74.5611 17.9372V17.9373ZM127.45 17.9405C126.929 17.9849 126.461 18.3339 126.288 18.8649L124.272 25.065C124.042 25.7729 124.427 26.5282 125.135 26.7583C125.843 26.9885 126.598 26.6038 126.828 25.896L128.844 19.6954C129.074 18.9874 128.689 18.2321 127.982 18.002C127.805 17.9445 127.624 17.9257 127.45 17.9403V17.9405ZM66.039 21.0559C65.8644 21.0591 65.6878 21.0974 65.5177 21.173C64.8378 21.4754 64.5333 22.2662 64.8357 22.9465L71.1309 37.1096C71.4332 37.7898 72.224 38.0939 72.9043 37.7916C73.5842 37.4892 73.8893 36.6984 73.5869 36.0181L67.2911 21.855C67.0645 21.3448 66.5627 21.0457 66.039 21.0559V21.0559ZM136.069 21.1034C135.545 21.0939 135.043 21.3911 134.816 21.9008L128.501 36.0553C128.198 36.7351 128.501 37.5265 129.181 37.8298C129.861 38.1331 130.652 37.83 130.956 37.1502L137.27 22.9958C137.573 22.3159 137.27 21.5245 136.59 21.2212C136.42 21.1455 136.243 21.1072 136.069 21.1034V21.1034ZM58.1288 25.2413C57.8708 25.2221 57.605 25.2795 57.3632 25.4194C56.7185 25.7916 56.4993 26.6102 56.8714 27.2549L60.1313 32.9011C60.5035 33.5459 61.3221 33.7651 61.9668 33.3929C62.6115 33.0206 62.8308 32.2021 62.4586 31.5574L59.1988 25.9112C58.966 25.5082 58.5588 25.2714 58.1288 25.2413V25.2413ZM143.871 25.2413C143.441 25.27 143.034 25.5081 142.801 25.9111L139.541 31.5573C139.169 32.202 139.389 33.0205 140.033 33.3928C140.678 33.765 141.496 33.5457 141.869 32.901L145.128 27.2548C145.501 26.6101 145.281 25.7915 144.637 25.4193C144.395 25.2798 144.129 25.2233 143.871 25.2412V25.2413ZM50.4475 30.0321C50.189 30.0416 49.9301 30.1247 49.7041 30.2884C49.1016 30.7255 48.9683 31.5625 49.4056 32.1651L58.5065 44.7108C58.9436 45.3133 59.7811 45.4465 60.3837 45.0095C60.9863 44.5724 61.1195 43.7354 60.6822 43.1329L51.5808 30.5872C51.3075 30.2106 50.8783 30.0175 50.4475 30.0322V30.0321ZM151.648 30.1004C151.217 30.0844 150.788 30.2776 150.514 30.6537L141.396 43.1871C140.958 43.7891 141.09 44.6264 141.692 45.0644C142.294 45.5023 143.132 45.3705 143.57 44.7688L152.687 32.2353C153.125 31.6333 152.993 30.796 152.391 30.358C152.165 30.1939 151.906 30.1097 151.648 30.1004V30.1004ZM43.5817 35.7901C43.2388 35.7709 42.8887 35.8855 42.6121 36.1346C42.0588 36.6326 42.0144 37.4789 42.5125 38.0321L46.8748 42.8781C47.3728 43.4313 48.219 43.4758 48.7723 42.9776C49.3256 42.4796 49.3701 41.6328 48.8719 41.0795L44.5103 36.2342C44.2613 35.9574 43.9248 35.808 43.5817 35.7899V35.7901ZM158.427 35.7997C158.084 35.8188 157.748 35.9673 157.499 36.2439L153.137 41.0887C152.639 41.6419 152.683 42.4886 153.236 42.9868C153.789 43.4849 154.635 43.4402 155.134 42.8872L159.496 38.0424C159.995 37.4892 159.95 36.6424 159.397 36.1443C159.12 35.8953 158.771 35.7818 158.428 35.7998L158.427 35.7997ZM37.0013 42.1111C36.6583 42.1302 36.3224 42.2786 36.0733 42.5553C35.5753 43.1086 35.6199 43.9548 36.173 44.4528L47.6922 54.8226C48.2455 55.3207 49.0916 55.2761 49.5896 54.723C50.0877 54.1697 50.0438 53.3235 49.4904 52.8254L37.9706 42.4557C37.6939 42.2067 37.344 42.0932 37.001 42.1112L37.0013 42.1111ZM165.04 42.1564C164.697 42.1372 164.346 42.2515 164.07 42.5003L152.543 52.8619C151.99 53.3596 151.944 54.2058 152.442 54.7595C152.94 55.3131 153.786 55.3581 154.34 54.8604L165.867 44.4987C166.42 44.001 166.465 43.1548 165.968 42.6012C165.719 42.3244 165.383 42.1746 165.04 42.1564H165.04ZM31.529 49.1475C31.0982 49.1315 30.6688 49.3256 30.3953 49.7019C29.9577 50.3042 30.0904 51.141 30.6928 51.5786L35.9672 55.4107C36.5695 55.8483 37.4063 55.7162 37.8439 55.1139C38.2815 54.5116 38.1491 53.6742 37.547 53.2366L32.2725 49.4044C32.0468 49.2404 31.7875 49.1567 31.5291 49.1474L31.529 49.1475ZM170.507 49.1964C170.248 49.2059 169.989 49.2886 169.763 49.4527L164.487 53.2814C163.884 53.7186 163.751 54.5561 164.188 55.1587C164.625 55.7612 165.462 55.8939 166.064 55.4568L171.342 51.6281C171.944 51.1909 172.077 50.354 171.64 49.7515C171.367 49.3749 170.938 49.1817 170.507 49.1964V49.1964ZM26.4152 56.6531C25.9853 56.6818 25.5785 56.92 25.3458 57.3229C24.9736 57.9676 25.1929 58.7862 25.8376 59.1584L39.2601 66.908C39.9048 67.2803 40.7234 67.0609 41.0956 66.4163C41.4679 65.7716 41.2485 64.953 40.6038 64.5808L27.1813 56.8311C26.9396 56.6916 26.6732 56.6351 26.4152 56.653V56.6531ZM175.584 56.6531C175.326 56.634 175.06 56.6914 174.818 56.8313L161.396 64.5809C160.751 64.9531 160.532 65.7717 160.904 66.4164C161.276 67.0611 162.095 67.2804 162.739 66.9081L176.162 59.1586C176.807 58.7863 177.026 57.9677 176.654 57.323C176.421 56.9201 176.014 56.6833 175.584 56.6533V56.6531ZM22.5487 64.6533C22.0251 64.6405 21.523 64.9403 21.2955 65.4501C20.9922 66.13 21.2953 66.9214 21.9752 67.2247L27.9299 69.8808C28.6098 70.184 29.4013 69.881 29.7046 69.2011C30.0078 68.5212 29.7041 67.7298 29.0243 67.4265L23.0701 64.7704C22.9003 64.6944 22.7233 64.6568 22.5487 64.6533V64.6533ZM179.477 64.7085C179.302 64.7117 179.125 64.75 178.955 64.8256L172.999 67.4771C172.319 67.78 172.015 68.571 172.317 69.2511C172.62 69.9312 173.412 70.2353 174.092 69.9325L180.048 67.2805C180.728 66.9779 181.032 66.1866 180.729 65.5065C180.502 64.9964 180 64.6981 179.477 64.7085V64.7085ZM19.1028 73.0149C18.5809 73.0586 18.1131 73.4073 17.9401 73.9381C17.7096 74.6459 18.0933 75.4015 18.8012 75.6321L33.5379 80.4339C34.2457 80.6644 35.0013 80.2804 35.2319 79.5727C35.4624 78.8649 35.0787 78.1094 34.3707 77.8788L19.6341 73.0769C19.4572 73.0191 19.2768 73.0003 19.1028 73.015V73.0149ZM182.916 73.0724C182.742 73.0564 182.563 73.0755 182.386 73.1343L167.645 77.9257C166.937 78.1558 166.553 78.9111 166.783 79.6191C167.013 80.327 167.768 80.7116 168.476 80.4814L183.216 75.69C183.924 75.4599 184.309 74.7046 184.079 73.9966C183.906 73.4657 183.438 73.1165 182.916 73.0723V73.0724ZM16.956 81.7922C16.3299 81.7858 15.7685 82.2204 15.6331 82.8575C15.4782 83.5857 15.9402 84.2964 16.6683 84.4512L23.0458 85.8065C23.774 85.9613 24.4846 85.4994 24.6394 84.7713C24.7942 84.0431 24.3324 83.3324 23.6043 83.1776L17.2274 81.8224C17.1364 81.8032 17.0453 81.7936 16.956 81.7936V81.7922ZM185.046 81.805C184.957 81.8057 184.867 81.8177 184.776 81.8337L178.398 83.1885C177.67 83.3433 177.208 84.0533 177.363 84.7815C177.518 85.5097 178.228 85.972 178.957 85.8173L185.333 84.4626C186.062 84.3078 186.524 83.5971 186.369 82.8689C186.234 82.2318 185.672 81.7983 185.046 81.8036L185.046 81.805ZM15.331 90.6211C14.7078 90.6808 14.1949 91.1697 14.1264 91.8175C14.0482 92.5578 14.5808 93.217 15.3211 93.2952L30.7345 94.9248C31.4748 95.003 32.134 94.4699 32.2122 93.7295C32.2904 92.9892 31.7573 92.3301 31.0169 92.2519L15.6035 90.6223C15.511 90.6127 15.42 90.6127 15.331 90.6212V90.6211ZM186.683 90.737C186.594 90.7274 186.502 90.7274 186.41 90.7381L170.994 92.3469C170.254 92.4241 169.72 93.0824 169.797 93.8228C169.875 94.5632 170.533 95.0971 171.273 95.0198L186.689 93.411C187.429 93.3338 187.963 92.6755 187.886 91.9351C187.818 91.2872 187.306 90.7975 186.683 90.7369L186.683 90.737ZM15.07 99.6587C14.3255 99.6587 13.7263 100.258 13.7263 101.002C13.7263 101.747 14.3255 102.346 15.07 102.346H21.5896C22.334 102.346 22.9339 101.747 22.9339 101.002C22.9339 100.258 22.334 99.6587 21.5896 99.6587H15.07ZM180.41 99.6587C179.665 99.6587 179.066 100.258 179.066 101.002C179.066 101.747 179.665 102.346 180.41 102.346H186.929C187.674 102.346 188.273 101.747 188.273 101.002C188.273 100.258 187.674 99.6587 186.929 99.6587H180.41ZM30.999 106.984C30.91 106.974 30.8189 106.974 30.7263 106.985L15.3106 108.594C14.5702 108.671 14.0365 109.329 14.1137 110.07C14.1909 110.81 14.8491 111.344 15.5895 111.267L31.0054 109.658C31.7458 109.581 32.2795 108.922 32.2023 108.182C32.1346 107.534 31.622 107.044 30.9989 106.984H30.999ZM170.992 107.079C170.369 107.139 169.856 107.628 169.788 108.275C169.709 109.016 170.242 109.675 170.982 109.753L186.396 111.383C187.136 111.461 187.795 110.928 187.873 110.187C187.952 109.447 187.419 108.788 186.678 108.71L171.265 107.08C171.173 107.071 171.081 107.071 170.992 107.079L170.992 107.079ZM23.3149 116.157C23.2255 116.157 23.1345 116.166 23.0436 116.185L16.666 117.54C15.9378 117.695 15.4762 118.406 15.6308 119.134C15.7856 119.862 16.4963 120.324 17.2245 120.169L23.6021 118.815C24.3302 118.66 24.7918 117.949 24.6372 117.221C24.5018 116.584 23.941 116.151 23.315 116.156L23.3149 116.157ZM178.683 116.169C178.057 116.163 177.496 116.597 177.36 117.234C177.206 117.962 177.667 118.673 178.395 118.828L184.773 120.183C185.501 120.338 186.212 119.877 186.366 119.148C186.521 118.42 186.059 117.709 185.331 117.554L178.954 116.199C178.863 116.18 178.772 116.17 178.683 116.17L178.683 116.169ZM34.0541 121.462C33.8801 121.446 33.7004 121.465 33.5234 121.524L18.7833 126.315C18.0753 126.545 17.6908 127.301 17.9209 128.009C18.1511 128.717 18.9063 129.101 19.6143 128.871L34.3539 124.08C35.0619 123.849 35.4469 123.094 35.2168 122.386C35.0441 121.855 34.576 121.506 34.0541 121.462V121.462ZM167.931 121.509C167.409 121.553 166.941 121.902 166.768 122.433C166.538 123.14 166.921 123.896 167.629 124.127L182.366 128.929C183.074 129.159 183.829 128.775 184.06 128.067C184.291 127.36 183.907 126.604 183.199 126.373L168.462 121.571C168.285 121.514 168.105 121.495 167.931 121.51V121.509ZM28.4293 131.956C28.2547 131.96 28.0779 131.997 27.9079 132.073L21.9515 134.725C21.2714 135.028 20.9678 135.819 21.2706 136.499C21.5735 137.179 22.3646 137.482 23.0446 137.18L29.0011 134.528C29.6812 134.226 29.9847 133.434 29.682 132.754C29.455 132.244 28.953 131.946 28.4293 131.956V131.956ZM173.549 132.007C173.025 131.995 172.523 132.294 172.295 132.804C171.992 133.484 172.295 134.276 172.975 134.579L178.929 137.235C179.609 137.538 180.401 137.235 180.704 136.555C181.007 135.875 180.704 135.084 180.024 134.781L174.07 132.125C173.9 132.049 173.723 132.011 173.549 132.007V132.007ZM40.0262 134.919C39.7683 134.9 39.5019 134.958 39.2601 135.097L25.8376 142.847C25.1929 143.219 24.9736 144.038 25.3458 144.682C25.7181 145.327 26.5366 145.546 27.1813 145.174L40.6038 137.425C41.2485 137.053 41.4678 136.234 41.0956 135.589C40.8629 135.186 40.4562 134.949 40.0262 134.919V134.919ZM161.974 134.919C161.544 134.948 161.136 135.186 160.904 135.589C160.532 136.234 160.751 137.053 161.396 137.425L174.818 145.174C175.463 145.546 176.282 145.327 176.654 144.682C177.026 144.038 176.807 143.219 176.162 142.847L162.739 135.097C162.498 134.958 162.232 134.901 161.974 134.919V134.919ZM36.6782 146.292C36.4197 146.301 36.1608 146.385 35.9348 146.549L30.6579 150.377C30.0554 150.815 29.9221 151.651 30.3592 152.254C30.7963 152.857 31.6333 152.99 32.2359 152.553L37.5132 148.724C38.1158 148.287 38.2491 147.45 37.812 146.847C37.5388 146.471 37.109 146.277 36.6782 146.292V146.292ZM165.289 146.337C164.858 146.321 164.429 146.515 164.155 146.891C163.718 147.494 163.851 148.331 164.453 148.769L169.727 152.601C170.33 153.038 171.167 152.906 171.604 152.303C172.042 151.701 171.909 150.864 171.307 150.427L166.033 146.594C165.807 146.43 165.548 146.346 165.289 146.337L165.289 146.337ZM48.6295 146.801C48.2865 146.782 47.9367 146.896 47.6598 147.145L36.1332 157.506C35.5795 158.004 35.5345 158.85 36.0322 159.404C36.5299 159.958 37.3762 160.003 37.9298 159.505L49.4565 149.143C50.0101 148.646 50.0551 147.799 49.5574 147.246C49.3087 146.969 48.9725 146.819 48.6295 146.801ZM153.338 146.838C152.995 146.857 152.659 147.006 152.409 147.282C151.911 147.836 151.956 148.682 152.509 149.18L164.028 159.549C164.582 160.048 165.428 160.003 165.926 159.45C166.424 158.897 166.38 158.05 165.827 157.552L154.307 147.183C154.03 146.934 153.681 146.82 153.338 146.838V146.838ZM59.5647 156.682C59.1339 156.666 58.704 156.859 58.4303 157.235L49.3127 169.768C48.8747 170.371 49.0065 171.208 49.6083 171.646C50.2102 172.084 51.0476 171.952 51.4855 171.35L60.6032 158.816C61.0411 158.214 60.9094 157.377 60.3076 156.939C60.0819 156.775 59.8231 156.691 59.5647 156.682ZM142.36 156.738C142.101 156.748 141.842 156.83 141.616 156.994C141.014 157.431 140.881 158.268 141.318 158.871L150.418 171.417C150.855 172.019 151.693 172.152 152.295 171.715C152.898 171.278 153.031 170.441 152.594 169.839L143.493 157.293C143.22 156.916 142.791 156.723 142.36 156.738V156.738ZM47.7944 158.674C47.4513 158.693 47.115 158.841 46.8659 159.118L42.5037 163.963C42.0055 164.516 42.0496 165.363 42.6029 165.861C43.1562 166.359 44.0023 166.314 44.5004 165.761L48.8633 160.916C49.3615 160.363 49.3168 159.516 48.7637 159.018C48.4869 158.769 48.1376 158.656 47.7946 158.674L47.7944 158.674ZM154.197 158.68C153.854 158.661 153.504 158.776 153.228 159.025C152.674 159.523 152.63 160.369 153.128 160.922L157.49 165.768C157.988 166.321 158.834 166.366 159.387 165.868C159.94 165.37 159.985 164.523 159.487 163.97L155.125 159.124C154.876 158.847 154.54 158.698 154.197 158.68L154.197 158.68ZM72.2971 164.055C71.7735 164.042 71.2719 164.342 71.0445 164.852L64.7296 179.006C64.4263 179.686 64.7294 180.477 65.4093 180.781C66.0891 181.084 66.8806 180.781 67.1838 180.101L73.4987 165.947C73.802 165.267 73.4989 164.475 72.819 164.172C72.6492 164.096 72.4717 164.058 72.2971 164.055ZM129.617 164.094C129.442 164.097 129.265 164.135 129.095 164.21C128.415 164.513 128.111 165.304 128.413 165.984L134.708 180.147C135.011 180.827 135.802 181.131 136.482 180.829C137.162 180.527 137.467 179.736 137.164 179.056L130.869 164.892C130.642 164.382 130.141 164.084 129.617 164.094V164.094ZM61.2007 168.431C60.7707 168.46 60.3639 168.698 60.1313 169.101L56.8714 174.747C56.4993 175.392 56.7185 176.21 57.3632 176.583C58.0079 176.955 58.8266 176.736 59.1988 176.091L62.4586 170.445C62.8308 169.8 62.6115 168.981 61.9668 168.609C61.7251 168.47 61.4587 168.413 61.2007 168.431V168.431ZM140.799 168.431C140.541 168.412 140.275 168.47 140.033 168.609C139.389 168.982 139.169 169.8 139.541 170.445L142.801 176.091C143.173 176.736 143.992 176.955 144.637 176.583C145.281 176.211 145.501 175.392 145.128 174.747L141.869 169.101C141.636 168.698 141.229 168.461 140.799 168.431V168.431ZM86.3552 168.634C85.7292 168.627 85.1683 169.061 85.033 169.698L81.812 184.859C81.6572 185.588 82.1192 186.298 82.8472 186.453C83.5754 186.608 84.2862 186.146 84.4409 185.418L87.6618 170.257C87.8167 169.529 87.3547 168.818 86.6266 168.663C86.5356 168.644 86.4447 168.634 86.3553 168.634L86.3552 168.634ZM115.597 168.643C115.507 168.644 115.417 168.653 115.326 168.672C114.598 168.826 114.135 169.536 114.289 170.264L117.499 185.428C117.654 186.156 118.364 186.618 119.092 186.464C119.821 186.31 120.283 185.599 120.129 184.871L116.918 169.709C116.783 169.071 116.223 168.638 115.597 168.643L115.597 168.643ZM101 170.172C100.255 170.172 99.6559 170.772 99.6559 171.516V187.015C99.6559 187.76 100.255 188.359 101 188.359C101.744 188.359 102.343 187.76 102.343 187.015V171.516C102.343 170.772 101.744 170.172 101 170.172ZM76.334 175.181C75.8122 175.225 75.3438 175.574 75.1713 176.105L73.156 182.306C72.9258 183.014 73.3105 183.769 74.0184 183.999C74.7263 184.229 75.4816 183.844 75.7118 183.136L77.727 176.936C77.9572 176.228 77.5725 175.473 76.8647 175.243C76.6878 175.185 76.508 175.166 76.334 175.181V175.181ZM125.655 175.184C125.481 175.168 125.301 175.187 125.124 175.246C124.416 175.476 124.031 176.231 124.261 176.939L126.276 183.14C126.506 183.848 127.261 184.232 127.969 184.002C128.677 183.772 129.062 183.017 128.832 182.309L126.817 176.109C126.644 175.578 126.177 175.228 125.655 175.184V175.184ZM92.5652 178.637C91.942 178.697 91.4287 179.187 91.3606 179.834L90.6792 186.319C90.6013 187.059 91.1347 187.717 91.875 187.795C92.6154 187.873 93.2742 187.34 93.3521 186.599L94.0335 180.116C94.1114 179.375 93.5781 178.716 92.8378 178.639C92.7452 178.629 92.6541 178.629 92.5651 178.637L92.5652 178.637ZM109.38 178.644C109.291 178.634 109.2 178.634 109.107 178.645C108.367 178.722 107.833 179.38 107.91 180.121L108.587 186.606C108.665 187.346 109.323 187.879 110.063 187.802C110.804 187.725 111.338 187.067 111.26 186.326L110.584 179.842C110.516 179.194 110.003 178.704 109.38 178.644L109.38 178.644Z" fill="#F4F2F3"/>
<g opacity="0.409" filter="url(#filter1_f_562_239)">
<path d="M163.981 47.2527L90.4638 89.9664L43.981 163.144L111.982 112.776L163.981 47.2527Z" fill="black"/>
</g>
<path d="M111.536 112.034L90.4632 89.9667L165.215 39.6812L111.536 112.034Z" fill="#FF5150"/>
<path d="M111.536 112.034L90.4637 89.9668L36.7844 162.32L111.536 112.034Z" fill="#F1F1F1"/>
<path opacity="0.243" d="M36.7842 162.32L111.536 112.034L165.215 39.6812L36.7842 162.32Z" fill="black"/>
<defs>
<filter id="filter0_f_562_239" x="2.29954" y="14.0588" width="197.401" height="190.26" filterUnits="userSpaceOnUse" color-interpolation-filters="sRGB">
<feFlood flood-opacity="0" result="BackgroundImageFix"/>
<feBlend mode="normal" in="SourceGraphic" in2="BackgroundImageFix" result="shape"/>
<feGaussianBlur stdDeviation="1.18446" result="effect1_foregroundBlur_562_239"/>
</filter>
<filter id="filter1_f_562_239" x="43.3076" y="46.5794" width="121.347" height="117.238" filterUnits="userSpaceOnUse" color-interpolation-filters="sRGB">
<feFlood flood-opacity="0" result="BackgroundImageFix"/>
<feBlend mode="normal" in="SourceGraphic" in2="BackgroundImageFix" result="shape"/>
<feGaussianBlur stdDeviation="0.336663" result="effect1_foregroundBlur_562_239"/>
</filter>
<linearGradient id="paint0_linear_562_239" x1="101" y1="201" x2="101" y2="1" gradientUnits="userSpaceOnUse">
<stop stop-color="#BDBDBD"/>
<stop offset="1" stop-color="white"/>
</linearGradient>
<radialGradient id="paint1_radial_562_239" cx="0" cy="0" r="1" gradientUnits="userSpaceOnUse" gradientTransform="translate(101.42 87.5626) scale(100)">
<stop stop-color="#06C2E7"/>
<stop offset="0.25" stop-color="#0DB8EC"/>
<stop offset="0.5" stop-color="#12AEF1"/>
<stop offset="0.75" stop-color="#1F86F9"/>
<stop offset="1" stop-color="#107DDD"/>
</radialGradient>
</defs>
</svg>
